<svg xmlns="http://www.w3.org/2000/svg" width="1080" height="570" viewBox="0 0 1080 570">
<rect width="100%" height="100%" fill="#ffffff"/>
<text x="24" y="24" font-family="Arial, sans-serif" font-size="18" font-weight="700">LatentWire source-private packet boundary vs KV/source-state floors</text>
<line x1="330" y1="504" x2="1020" y2="504" stroke="#333"/>
<line x1="423.2" y1="28" x2="423.2" y2="504" stroke="#e1e5ea"/>
<text x="423.2" y="522" text-anchor="middle" font-family="Arial, sans-serif" font-size="11" fill="#333">4B</text>
<line x1="499.3" y1="28" x2="499.3" y2="504" stroke="#e1e5ea"/>
<text x="499.3" y="522" text-anchor="middle" font-family="Arial, sans-serif" font-size="11" fill="#333">15B</text>
<line x1="582.9" y1="28" x2="582.9" y2="504" stroke="#e1e5ea"/>
<text x="582.9" y="522" text-anchor="middle" font-family="Arial, sans-serif" font-size="11" fill="#333">64B</text>
<line x1="662.8" y1="28" x2="662.8" y2="504" stroke="#e1e5ea"/>
<text x="662.8" y="522" text-anchor="middle" font-family="Arial, sans-serif" font-size="11" fill="#333">256B</text>
<line x1="726.1" y1="28" x2="726.1" y2="504" stroke="#e1e5ea"/>
<text x="726.1" y="522" text-anchor="middle" font-family="Arial, sans-serif" font-size="11" fill="#333">768B</text>
<line x1="766.1" y1="28" x2="766.1" y2="504" stroke="#e1e5ea"/>
<text x="766.1" y="522" text-anchor="middle" font-family="Arial, sans-serif" font-size="11" fill="#333">1536B</text>
<line x1="798.3" y1="28" x2="798.3" y2="504" stroke="#e1e5ea"/>
<text x="798.3" y="522" text-anchor="middle" font-family="Arial, sans-serif" font-size="11" fill="#333">2688B</text>
<line x1="816.5" y1="28" x2="816.5" y2="504" stroke="#e1e5ea"/>
<text x="816.5" y="522" text-anchor="middle" font-family="Arial, sans-serif" font-size="11" fill="#333">3686.4B</text>
<line x1="885.9" y1="28" x2="885.9" y2="504" stroke="#e1e5ea"/>
<text x="885.9" y="522" text-anchor="middle" font-family="Arial, sans-serif" font-size="11" fill="#333">12288B</text>
<text x="24" y="58" font-family="Arial, sans-serif" font-size="12" fill="#111">LatentWire HellaSwag validation_full_compaction packet</text>
<text x="24" y="71" font-family="Arial, sans-serif" font-size="10" fill="#555">task-level candidate evidence packet</text>
<rect x="330" y="45" width="93.2" height="14" fill="#1f77b4"/>
<text x="429.2" y="56" font-family="Arial, sans-serif" font-size="11" fill="#111">4B</text>
<text x="24" y="87" font-family="Arial, sans-serif" font-size="12" fill="#111">LatentWire HellaSwag validation_first1024 packet</text>
<text x="24" y="100" font-family="Arial, sans-serif" font-size="10" fill="#555">task-level candidate evidence packet</text>
<rect x="330" y="74" width="106.0" height="14" fill="#1f77b4"/>
<text x="442.0" y="85" font-family="Arial, sans-serif" font-size="11" fill="#111">5B</text>
<text x="24" y="116" font-family="Arial, sans-serif" font-size="12" fill="#111">LatentWire OpenBookQA test packet</text>
<text x="24" y="129" font-family="Arial, sans-serif" font-size="10" fill="#555">task-level candidate evidence packet</text>
<rect x="330" y="103" width="116.5" height="14" fill="#1f77b4"/>
<text x="452.5" y="114" font-family="Arial, sans-serif" font-size="11" fill="#111">6B</text>
<text x="24" y="145" font-family="Arial, sans-serif" font-size="12" fill="#111">LatentWire ARC-Challenge test packet</text>
<text x="24" y="158" font-family="Arial, sans-serif" font-size="10" fill="#555">task-level candidate evidence packet</text>
<rect x="330" y="132" width="151.5" height="14" fill="#1f77b4"/>
<text x="487.5" y="143" font-family="Arial, sans-serif" font-size="11" fill="#111">11B</text>
<text x="24" y="174" font-family="Arial, sans-serif" font-size="12" fill="#111">Same-byte structured text control (ARC)</text>
<text x="24" y="187" font-family="Arial, sans-serif" font-size="10" fill="#555">text-form control with same packet budget</text>
<rect x="330" y="161" width="151.5" height="14" fill="#8c8c8c"/>
<text x="487.5" y="172" font-family="Arial, sans-serif" font-size="11" fill="#111">11B</text>
<text x="24" y="203" font-family="Arial, sans-serif" font-size="12" fill="#111">1-bit/KV-element accounting floor</text>
<text x="24" y="216" font-family="Arial, sans-serif" font-size="10" fill="#555">one-token K+V state at 1 bit/element</text>
<rect x="330" y="190" width="396.1" height="14" fill="#ff7f0e"/>
<text x="732.1" y="201" font-family="Arial, sans-serif" font-size="11" fill="#111">768B</text>
<text x="24" y="232" font-family="Arial, sans-serif" font-size="12" fill="#111">KIVI 2-bit KV floor</text>
<text x="24" y="245" font-family="Arial, sans-serif" font-size="10" fill="#555">one-token K+V state at 2 bits/element</text>
<rect x="330" y="219" width="436.1" height="14" fill="#ff7f0e"/>
<text x="772.1" y="230" font-family="Arial, sans-serif" font-size="11" fill="#111">1536B</text>
<text x="24" y="261" font-family="Arial, sans-serif" font-size="12" fill="#111">One hidden-vector fp16 relay floor</text>
<text x="24" y="274" font-family="Arial, sans-serif" font-size="10" fill="#555">one source hidden vector, fp16</text>
<rect x="330" y="248" width="445.0" height="14" fill="#d62728"/>
<text x="781.0" y="259" font-family="Arial, sans-serif" font-size="11" fill="#111">1792B</text>
<text x="24" y="290" font-family="Arial, sans-serif" font-size="12" fill="#111">Q-KVComm optimistic 6x floor</text>
<text x="24" y="303" font-family="Arial, sans-serif" font-size="10" fill="#555">compressed source KV cache representation</text>
<rect x="330" y="277" width="452.7" height="14" fill="#9467bd"/>
<text x="788.7" y="288" font-family="Arial, sans-serif" font-size="11" fill="#111">2048B</text>
<text x="24" y="319" font-family="Arial, sans-serif" font-size="12" fill="#111">KVQuant 3-bit proxy floor</text>
<text x="24" y="332" font-family="Arial, sans-serif" font-size="10" fill="#555">one-token K+V state at 3 bits/element</text>
<rect x="330" y="306" width="459.4" height="14" fill="#ff7f0e"/>
<text x="795.4" y="317" font-family="Arial, sans-serif" font-size="11" fill="#111">2304B</text>
<text x="24" y="348" font-family="Arial, sans-serif" font-size="12" fill="#111">TurboQuant 3.5-bit KV floor</text>
<text x="24" y="361" font-family="Arial, sans-serif" font-size="10" fill="#555">one-token K+V state at 3.5 bits/element</text>
<rect x="330" y="335" width="468.3" height="14" fill="#ff7f0e"/>
<text x="804.3" y="346" font-family="Arial, sans-serif" font-size="11" fill="#111">2688B</text>
<text x="24" y="377" font-family="Arial, sans-serif" font-size="12" fill="#111">KVComm 30% fp16 KV floor</text>
<text x="24" y="390" font-family="Arial, sans-serif" font-size="10" fill="#555">selected source KV layers, fp16</text>
<rect x="330" y="364" width="486.5" height="14" fill="#9467bd"/>
<text x="822.5" y="375" font-family="Arial, sans-serif" font-size="11" fill="#111">3686.4B</text>
<text x="24" y="406" font-family="Arial, sans-serif" font-size="12" fill="#111">C2C one-token fp16 KV floor</text>
<text x="24" y="419" font-family="Arial, sans-serif" font-size="10" fill="#555">projected/fused source KV cache</text>
<rect x="330" y="393" width="555.9" height="14" fill="#9467bd"/>
<text x="891.9" y="404" font-family="Arial, sans-serif" font-size="11" fill="#111">12288B</text>
<text x="24" y="435" font-family="Arial, sans-serif" font-size="12" fill="#111">KVCOMM cross-context fp16 KV floor</text>
<text x="24" y="448" font-family="Arial, sans-serif" font-size="10" fill="#555">aligned/reused source KV cache</text>
<rect x="330" y="422" width="555.9" height="14" fill="#9467bd"/>
<text x="891.9" y="433" font-family="Arial, sans-serif" font-size="11" fill="#111">12288B</text>
<text x="24" y="464" font-family="Arial, sans-serif" font-size="12" fill="#111">SGLang/RadixAttention one-token KV floor</text>
<text x="24" y="477" font-family="Arial, sans-serif" font-size="10" fill="#555">KV-cache reuse serving substrate</text>
<rect x="330" y="451" width="555.9" height="14" fill="#2ca02c"/>
<text x="891.9" y="462" font-family="Arial, sans-serif" font-size="11" fill="#111">12288B</text>
<text x="24" y="493" font-family="Arial, sans-serif" font-size="12" fill="#111">vLLM/PagedAttention one-token KV floor</text>
<text x="24" y="506" font-family="Arial, sans-serif" font-size="10" fill="#555">paged KV-cache serving substrate</text>
<rect x="330" y="480" width="555.9" height="14" fill="#2ca02c"/>
<text x="891.9" y="491" font-family="Arial, sans-serif" font-size="11" fill="#111">12288B</text>
<text x="675.0" y="562" text-anchor="middle" font-family="Arial, sans-serif" font-size="12" fill="#333">Log-scale framed or state bytes per request; KV rows are byte floors, not native wins</text>
</svg>
