<svg xmlns="http://www.w3.org/2000/svg" width="820" height="520" viewBox="0 0 820 520">
<rect width="100%" height="100%" fill="#ffffff"/>
<text x="410.0" y="28.0" text-anchor="middle" font-family="Arial, Helvetica, sans-serif" font-size="20" font-weight="700" fill="#1f2937">Accuracy versus communicated bytes</text>
<line x1="80" y1="440" x2="780" y2="440" stroke="#111827" stroke-width="1.5"/>
<line x1="80" y1="55" x2="80" y2="440" stroke="#111827" stroke-width="1.5"/>
<line x1="80" y1="343.8" x2="780" y2="343.8" stroke="#e5e7eb"/>
<text x="68.0" y="347.8" text-anchor="end" font-family="Arial, Helvetica, sans-serif" font-size="12" font-weight="400" fill="#1f2937">0.25</text>
<line x1="80" y1="247.5" x2="780" y2="247.5" stroke="#e5e7eb"/>
<text x="68.0" y="251.5" text-anchor="end" font-family="Arial, Helvetica, sans-serif" font-size="12" font-weight="400" fill="#1f2937">0.50</text>
<line x1="80" y1="151.2" x2="780" y2="151.2" stroke="#e5e7eb"/>
<text x="68.0" y="155.2" text-anchor="end" font-family="Arial, Helvetica, sans-serif" font-size="12" font-weight="400" fill="#1f2937">0.75</text>
<line x1="80" y1="55.0" x2="780" y2="55.0" stroke="#e5e7eb"/>
<text x="68.0" y="59.0" text-anchor="end" font-family="Arial, Helvetica, sans-serif" font-size="12" font-weight="400" fill="#1f2937">1.00</text>
<line x1="80.0" y1="440" x2="80.0" y2="445" stroke="#111827"/>
<text x="80.0" y="462.0" text-anchor="middle" font-family="Arial, Helvetica, sans-serif" font-size="11" font-weight="400" fill="#1f2937">0</text>
<line x1="83.7" y1="440" x2="83.7" y2="445" stroke="#111827"/>
<text x="83.7" y="462.0" text-anchor="middle" font-family="Arial, Helvetica, sans-serif" font-size="11" font-weight="400" fill="#1f2937">2</text>
<line x1="105.8" y1="440" x2="105.8" y2="445" stroke="#111827"/>
<text x="105.8" y="462.0" text-anchor="middle" font-family="Arial, Helvetica, sans-serif" font-size="11" font-weight="400" fill="#1f2937">14</text>
<line x1="138.9" y1="440" x2="138.9" y2="445" stroke="#111827"/>
<text x="138.9" y="462.0" text-anchor="middle" font-family="Arial, Helvetica, sans-serif" font-size="11" font-weight="400" fill="#1f2937">32</text>
<line x1="264.2" y1="440" x2="264.2" y2="445" stroke="#111827"/>
<text x="264.2" y="462.0" text-anchor="middle" font-family="Arial, Helvetica, sans-serif" font-size="11" font-weight="400" fill="#1f2937">100</text>
<line x1="448.4" y1="440" x2="448.4" y2="445" stroke="#111827"/>
<text x="448.4" y="462.0" text-anchor="middle" font-family="Arial, Helvetica, sans-serif" font-size="11" font-weight="400" fill="#1f2937">200</text>
<line x1="768.9" y1="440" x2="768.9" y2="445" stroke="#111827"/>
<text x="768.9" y="462.0" text-anchor="middle" font-family="Arial, Helvetica, sans-serif" font-size="11" font-weight="400" fill="#1f2937">374</text>
<text x="430.0" y="498.0" text-anchor="middle" font-family="Arial, Helvetica, sans-serif" font-size="14" font-weight="700" fill="#1f2937">Communicated bytes</text>
<text x="24.0" y="247.5" text-anchor="middle" font-family="Arial, Helvetica, sans-serif" font-size="14" font-weight="700" fill="#1f2937">Accuracy</text>
<polyline points="83.7,55.0 87.4,55.0 94.7,55.0 109.5,55.0 138.9,55.0" fill="none" stroke="#2563eb" stroke-width="2.5"/>
<circle cx="83.7" cy="55.0" r="4.5" fill="#2563eb"/>
<circle cx="87.4" cy="55.0" r="4.5" fill="#2563eb"/>
<circle cx="94.7" cy="55.0" r="4.5" fill="#2563eb"/>
<circle cx="109.5" cy="55.0" r="4.5" fill="#2563eb"/>
<circle cx="138.9" cy="55.0" r="4.5" fill="#2563eb"/>
<polyline points="83.7,343.8 87.4,343.8 94.7,343.8 109.5,343.8 138.9,55.0" fill="none" stroke="#dc2626" stroke-width="2.5"/>
<circle cx="83.7" cy="343.8" r="4.5" fill="#dc2626"/>
<circle cx="87.4" cy="343.8" r="4.5" fill="#dc2626"/>
<circle cx="94.7" cy="343.8" r="4.5" fill="#dc2626"/>
<circle cx="109.5" cy="343.8" r="4.5" fill="#dc2626"/>
<circle cx="138.9" cy="55.0" r="4.5" fill="#dc2626"/>
<polyline points="83.7,343.8 87.4,343.8 94.7,343.8 109.5,343.8 138.9,55.0" fill="none" stroke="#ea580c" stroke-width="2.5"/>
<circle cx="83.7" cy="343.8" r="4.5" fill="#ea580c"/>
<circle cx="87.4" cy="343.8" r="4.5" fill="#ea580c"/>
<circle cx="94.7" cy="343.8" r="4.5" fill="#ea580c"/>
<circle cx="109.5" cy="343.8" r="4.5" fill="#ea580c"/>
<circle cx="138.9" cy="55.0" r="4.5" fill="#ea580c"/>
<polyline points="83.7,343.8 87.4,343.8 94.7,343.8 109.5,343.8 138.9,343.8" fill="none" stroke="#6b7280" stroke-width="2.5"/>
<circle cx="83.7" cy="343.8" r="4.5" fill="#6b7280"/>
<circle cx="87.4" cy="343.8" r="4.5" fill="#6b7280"/>
<circle cx="94.7" cy="343.8" r="4.5" fill="#6b7280"/>
<circle cx="109.5" cy="343.8" r="4.5" fill="#6b7280"/>
<circle cx="138.9" cy="343.8" r="4.5" fill="#6b7280"/>
<circle cx="105.8" cy="55.0" r="4.5" fill="#059669"/>
<polyline points="755.0,55.0 768.0,55.0" fill="none" stroke="#7c3aed" stroke-width="2.5"/>
<circle cx="755.0" cy="55.0" r="4.5" fill="#7c3aed"/>
<circle cx="768.0" cy="55.0" r="4.5" fill="#7c3aed"/>
<rect x="520" y="68" width="14" height="14" fill="#2563eb"/>
<text x="542.0" y="80.0" text-anchor="start" font-family="Arial, Helvetica, sans-serif" font-size="12" font-weight="400" fill="#1f2937">2-byte packet</text>
<rect x="520" y="92" width="14" height="14" fill="#dc2626"/>
<text x="542.0" y="104.0" text-anchor="start" font-family="Arial, Helvetica, sans-serif" font-size="12" font-weight="400" fill="#1f2937">JSON relay</text>
<rect x="520" y="116" width="14" height="14" fill="#ea580c"/>
<text x="542.0" y="128.0" text-anchor="start" font-family="Arial, Helvetica, sans-serif" font-size="12" font-weight="400" fill="#1f2937">Free-text relay</text>
<rect x="520" y="140" width="14" height="14" fill="#6b7280"/>
<text x="542.0" y="152.0" text-anchor="start" font-family="Arial, Helvetica, sans-serif" font-size="12" font-weight="400" fill="#1f2937">Hidden-log prefix</text>
<rect x="520" y="164" width="14" height="14" fill="#059669"/>
<text x="542.0" y="176.0" text-anchor="start" font-family="Arial, Helvetica, sans-serif" font-size="12" font-weight="400" fill="#1f2937">Full diagnostic text</text>
<rect x="520" y="188" width="14" height="14" fill="#7c3aed"/>
<text x="542.0" y="200.0" text-anchor="start" font-family="Arial, Helvetica, sans-serif" font-size="12" font-weight="400" fill="#1f2937">Full hidden-log relay</text>
</svg>